<svg id="visual" viewBox="0 0 900 600" width="900" height="600" xmlns="http://www.w3.org/2000/svg" xmlns:xlink="http://www.w3.org/1999/xlink" version="1.1"><rect x="0" y="0" width="900" height="600" fill="#ffffff"></rect><defs><linearGradient id="grad1_0" x1="33.3%" y1="0%" x2="100%" y2="100%"><stop offset="20%" stop-color="" stop-opacity="1"></stop><stop offset="80%" stop-color="#ffffff" stop-opacity="1"></stop></linearGradient></defs><defs><linearGradient id="grad2_0" x1="0%" y1="0%" x2="66.7%" y2="100%"><stop offset="20%" stop-color="#ffffff" stop-opacity="1"></stop><stop offset="80%" stop-color="#ffffff" stop-opacity="1"></stop></linearGradient></defs><g transform="translate(900, 0)"><path d="M0 324.5C-45.3 323.5 -90.6 322.5 -124.2 299.8C-157.8 277.1 -179.7 232.6 -196.6 196.6C-213.4 160.6 -225.3 133.1 -245.8 101.8C-266.2 70.5 -295.4 35.2 -324.5 0L0 0Z" fill="#0066FF"></path></g><g transform="translate(0, 600)"><path d="M0 -324.5C41.9 -319.8 83.8 -315.1 124.2 -299.8C164.6 -284.5 203.6 -258.6 224.2 -224.2C244.7 -189.7 246.9 -146.7 260.5 -107.9C274.2 -69.1 299.3 -34.6 324.5 0L0 0Z" fill="#0066FF"></path></g></svg>