<svg xmlns="http://www.w3.org/2000/svg" version="1.1" xmlns:xlink="http://www.w3.org/1999/xlink" xmlns:svgjs="http://svgjs.dev/svgjs" width="1440" height="560" preserveAspectRatio="none" viewBox="0 0 1440 560"><g mask="url(&quot;#SvgjsMask1003&quot;)" fill="none"><path d="M-111.42 36.75 a148.17 148.17 0 1 0 296.34 0 a148.17 148.17 0 1 0 -296.34 0z" fill="rgba(255, 255, 255, 1)" class="triangle-float3"></path><path d="M-52.76 -21.9 a30.86 30.86 0 1 0 61.72 0 a30.86 30.86 0 1 0 -61.72 0z" fill="rgba(255, 255, 255, 1)" class="triangle-float2"></path><path d="M-120.16 45.48 a165.64 165.64 0 1 0 331.28 0 a165.64 165.64 0 1 0 -331.28 0z" fill="rgba(255, 255, 255, 1)" class="triangle-float2"></path><path d="M1232.74 20.6 a115.86 115.86 0 1 0 231.72 0 a115.86 115.86 0 1 0 -231.72 0z" fill="rgba(255, 255, 255, 1)" class="triangle-float3"></path><path d="M1257.6 -4.26 a66.14 66.14 0 1 0 132.28 0 a66.14 66.14 0 1 0 -132.28 0z" fill="rgba(255, 255, 255, 1)" class="triangle-float2"></path><path d="M1289.44 -36.11 a2.45 2.45 0 1 0 4.9 0 a2.45 2.45 0 1 0 -4.9 0z" fill="rgba(255, 255, 255, 1)" class="triangle-float3"></path><path d="M-89.5 462.84 a104.34 104.34 0 1 0 208.68 0 a104.34 104.34 0 1 0 -208.68 0z" fill="rgba(255, 255, 255, 1)" class="triangle-float2"></path><path d="M-72.3 445.63 a69.93 69.93 0 1 0 139.86 0 a69.93 69.93 0 1 0 -139.86 0z" fill="rgba(255, 255, 255, 1)" class="triangle-float3"></path><path d="M-60.27 433.6 a45.87 45.87 0 1 0 91.74 0 a45.87 45.87 0 1 0 -91.74 0z" fill="rgba(255, 255, 255, 1)" class="triangle-float2"></path><path d="M1290.07 411.27 a1.2 1.2 0 1 0 2.4 0 a1.2 1.2 0 1 0 -2.4 0z" fill="rgba(255, 255, 255, 1)" class="triangle-float3"></path><path d="M1222.46 478.88 a136.42 136.42 0 1 0 272.84 0 a136.42 136.42 0 1 0 -272.84 0z" fill="rgba(255, 255, 255, 1)" class="triangle-float3"></path><path d="M1214.33 487.01 a152.68 152.68 0 1 0 305.36 0 a152.68 152.68 0 1 0 -305.36 0z" fill="rgba(255, 255, 255, 1)" class="triangle-float3"></path></g><defs><mask id="SvgjsMask1003"><rect width="1440" height="560" fill="#ffffff"></rect></mask><style>
                @keyframes float1 {
                    0%{transform: translate(0, 0)}
                    50%{transform: translate(-10px, 0)}
                    100%{transform: translate(0, 0)}
                }

                .triangle-float1 {
                    animation: float1 5s infinite;
                }

                @keyframes float2 {
                    0%{transform: translate(0, 0)}
                    50%{transform: translate(-5px, -5px)}
                    100%{transform: translate(0, 0)}
                }

                .triangle-float2 {
                    animation: float2 4s infinite;
                }

                @keyframes float3 {
                    0%{transform: translate(0, 0)}
                    50%{transform: translate(0, -10px)}
                    100%{transform: translate(0, 0)}
                }

                .triangle-float3 {
                    animation: float3 6s infinite;
                }
            </style></defs></svg>