<svg xmlns="http://www.w3.org/2000/svg" version="1.1" xmlns:xlink="http://www.w3.org/1999/xlink" xmlns:svgjs="http://svgjs.dev/svgjs" width="2068" height="500" preserveAspectRatio="none" viewBox="0 0 1468 500"><g mask="url(&quot;#SvgjsMask1009&quot;)" fill="none"><path d="M -21.929976763224943,221 C 36.87,267.6 154.47,490.8 272.07002323677506,454 C 389.67,417.2 448.47,66.2 566.0700232367751,37 C 683.67,7.8 742.47,284.8 860.0700232367751,308 C 977.67,331.2 1036.47,126.6 1154.0700232367751,153 C 1271.67,179.4 1330.47,446.6 1448.0700232367751,440 C 1565.67,433.4 1738.08,133.6 1742.0700232367751,120 C 1746.06,106.4 1522.81,321.6 1468,372" stroke="rgba(1, 145, 255, 1)" stroke-width="10"></path><path d="M -431.3908478864463,129 C -372.59,192.2 -254.99,457 -137.3908478864463,445 C -19.79,433 39.01,107.4 156.6091521135537,69 C 274.21,30.6 333.01,239 450.6091521135537,253 C 568.21,267 627.01,116 744.6091521135537,139 C 862.21,162 921.01,374.8 1038.6091521135536,368 C 1156.21,361.2 1246.73,94 1332.6091521135536,105 C 1418.49,116 1440.92,359.4 1468,423" stroke="rgba(1, 229, 255, 1)" stroke-width="10"></path></g><defs><mask id="SvgjsMask1009"><rect width="2068" height="500" fill="#ffffff"></rect></mask></defs></svg>